# xmcd
#
# Track frame offsets: 
#        150
#        21090
#        44947
#        65919
#        84933
#        106136
#        123422
#        142472
#        165790
#        191024
#        218270
#        239264
#
# Disc length: 3582 seconds
#
# Revision: 0
# Processed by: cddbd v1.5.2PL0 Copyright (c) Steve Scherf et al.
# Submitted via: ExactAudioCopy v0.95a5
#
DISCID=a70dfc0c
DTITLE=Dr Bob - Therapy
DYEAR=1999
DGENRE=R&B
TTITLE0=Call The Doctor
TTITLE1=Dear Lord I Just Love Maxwell Smart
TTITLE2=Its Going to Be All Right
TTITLE3=You Can't Fool The Big Guy
TTITLE4=Same Old Blues
TTITLE5=Fantastic Plastic
TTITLE6=Jelly Babies
TTITLE7=Really Going to Like Us
TTITLE8=Daddy's Coming Home
TTITLE9=Heaven
TTITLE10=Perpetual Motion
TTITLE11=Down By The River
EXTD=
EXTT0=
EXTT1=
EXTT2=
EXTT3=
EXTT4=
EXTT5=
EXTT6=
EXTT7=
EXTT8=
EXTT9=
EXTT10=
EXTT11=
PLAYORDER=
